<?xml version="1.0" encoding="UTF-8"?>
<svg width="536px" height="332px" viewBox="0 0 536 332" version="1.1" xmlns="http://www.w3.org/2000/svg" xmlns:xlink="http://www.w3.org/1999/xlink">
    <!-- Generator: Sketch 51.1 (57501) - http://www.bohemiancoding.com/sketch -->
    <title>graph_bw</title>
    <desc>Created with Sketch.</desc>
    <defs></defs>
    <g id="Page-1" stroke="none" stroke-width="1" fill="none" fill-rule="evenodd">
        <g id="graph_bw" transform="translate(-1.000000, -1.000000)" fill-rule="nonzero">
            <g id="Group" transform="translate(268.900000, 166.600000) scale(-1, 1) rotate(-180.000000) translate(-268.900000, -166.600000) translate(0.900000, 0.100000)">
                <path d="M305.6,329.6 C300.2,324.3 304,315.1 311.6,315.1 C316.5,315.1 320.1,318.7 320.1,323.6 C320.1,331.2 310.9,335 305.6,329.6 Z" id="Shape" fill="#2A92E5"></path>
                <path d="M274.4,328.9 C270.9,325.1 271,320.1 274.6,316.6 C281.3,309.9 292.1,318.4 287.7,326.9 C286,330.2 284.3,331.1 279.7,331.1 C277.6,331.1 275.7,330.3 274.4,328.9 Z" id="Shape" fill="#E13C74"></path>
                <path d="M239,313.2 C231,305.1 242.3,293.3 250.6,301.1 C254.8,305 254,312.1 249,314.6 C244.8,316.8 242.3,316.4 239,313.2 Z" id="Shape" fill="#E13C74"></path>
                <path d="M324.2,313.4 C323,312.4 321.8,309.9 321.4,307.9 C320.9,304.7 321.3,303.8 323.9,301.1 C327.3,297.8 329.8,297.4 334,299.6 C337.2,301.2 338.1,302.9 338.1,307.5 C338.1,314 329.4,317.6 324.2,313.4 Z" id="Shape" fill="#2A92E5"></path>
                <path d="M298.1,313.4 C294.7,312.1 292.1,308.7 292.1,305.5 C292.1,300.9 293,299.2 296.2,297.6 C300.2,295.5 302.5,295.7 306,298.7 C308.3,300.6 309.1,302.1 309.1,304.6 C309.1,310.3 302.9,315.2 298.1,313.4 Z" id="Shape" fill="#E13C74"></path>
                <path d="M265.4,311.1 C257.8,308 260.5,295.1 268.7,295.1 C273.3,295.1 275,296 276.7,299.3 C280.6,306.7 273.3,314.3 265.4,311.1 Z" id="Shape" fill="#2A92E5"></path>
                <path d="M280.8,311.4 C280.5,311 282.5,298.9 285.1,284.6 C287.8,270.3 289.8,258.5 289.7,258.3 C289.5,258.2 286.4,266 282.6,275.6 C277.3,289.3 275.4,293.1 274,293.1 C273,293.1 272,292.8 271.7,292.3 C271.3,291.7 276.4,277.9 285.6,254.8 C287.8,249.2 287.2,249.9 273.6,269.6 C251.7,301.1 253.2,299.2 250.9,298 C248.9,296.9 249,296.9 251.9,295.1 C255.6,292.8 258.1,289.3 258.1,286.5 C258.1,285.3 259.7,281.9 261.7,279 C263.7,276 267.4,270.7 269.8,267.1 L274.2,260.6 L265.6,269.5 C257,278.4 257,278.4 255,276.5 C253.1,274.5 253.1,274.4 264.8,262 C271.3,255.1 277.7,248.2 279.1,246.6 L281.6,243.7 L279.1,245.2 C277.7,246.1 267.4,252.5 256.3,259.5 C241.6,268.8 235.6,272 234.8,271.2 C234.2,270.6 233.9,270 234.2,269.8 C234.4,269.5 245.5,262.5 258.9,254.2 C272.2,245.8 283.1,238.8 283.1,238.6 C283.1,238.3 277.3,239.8 248.1,247.7 C238.8,250.2 235.5,250.7 234.9,249.8 C233.4,247.5 234.1,246.2 237.4,245.3 C239.1,244.8 247.2,242.7 255.3,240.6 C263.4,238.4 269.9,236.5 269.7,236.4 C269.4,236 199.1,239.5 187.9,240.4 C183.2,240.8 183.1,240.7 183.1,238 C183.1,235.2 183.2,235.1 188.4,235.1 C193.8,235 225.9,233.5 246.6,232.3 L258.6,231.6 L246.1,230.3 C239.2,229.5 233.5,228.9 233.5,228.8 C233.4,228.7 233.6,227.2 233.8,225.4 C234.3,222.5 234.6,222.3 237.5,222.8 C239.2,223 250.7,224.2 263.1,225.4 L285.6,227.6 L286.2,232.5 C287.3,242.3 297.2,246.5 304.3,240.2 C307.2,237.6 307.6,236.7 307.6,232.1 C307.6,227.5 307.2,226.6 304.3,224 C302.5,222.4 300.2,221.1 299.1,221.1 C298,221.1 297.1,220.8 297.1,220.5 C297.1,220.2 301.6,205.9 307,188.8 C312.5,171.6 317.1,156.9 317.3,155.9 C317.5,154.8 308.7,148 286.1,132.1 C268.8,119.9 253.9,109.2 253.1,108.4 C251.8,107.1 251.8,106.9 253.3,106 C255.5,104.8 257.5,98.7 256.7,95.5 C256.1,93.2 256.2,93.1 262,93.1 C269.9,93.1 370.2,90.4 390.9,89.6 L407.2,89 L406.5,91.4 C405.1,97.1 411.3,104.1 417.6,104.1 C420.6,104.1 426.1,101.5 426.1,100.1 C426.1,97.3 430.6,101.1 452.1,122 C475.5,144.8 475.6,144.9 473.7,147 L471.8,149.1 L457.3,135.3 L442.7,121.6 L449.9,132.1 C456.2,141.3 456.8,142.7 455.3,143.5 C454.4,144 452.7,145.2 451.6,146.2 C449.6,147.9 449.4,147.6 439.2,132.8 C433.5,124.4 429.1,118.5 429.3,119.6 C429.6,120.7 431.7,131.6 434.1,143.8 L438.5,166 L443.7,161.6 L448.8,157.2 L449.9,159.6 C450.5,160.9 452.2,162.8 453.6,163.7 L456.2,165.4 L451.4,170.4 L446.6,175.4 L453.1,170.9 C456.7,168.4 461.2,165.6 463.1,164.6 C465,163.7 467.6,161.9 468.9,160.8 C471.1,158.8 471.1,158.8 472.6,160.7 C473.4,161.7 474,163.1 474,163.6 C474,164.2 467.3,169.3 459,175 C450.7,180.7 443.7,185.9 443.4,186.6 C443.2,187.4 443.6,191.1 444.4,194.9 L445.8,201.9 L441.7,202.4 C439.4,202.6 436.6,203.2 435.5,203.6 C433.5,204.2 433.2,203.8 432.6,199.1 L431.9,194 L429.2,195.7 C427.8,196.6 424,199.4 420.7,201.8 C416.2,205.3 414.6,206 414,204.9 C413.5,204.2 413.1,203.3 413.1,202.8 C413.1,201.3 406.5,198.1 403.4,198.1 C400.8,198.1 400.1,197.7 400.1,196.2 C400.1,194.4 406.6,137.9 407.5,131.6 C407.8,130 403.5,137.8 398,148.9 L388.1,169.3 L385,166.7 C383.2,165.2 380.7,164.1 379,164.1 C377.4,164.1 376.1,163.6 376.1,163.1 C376.1,162.5 379.1,156.2 382.7,148.9 C389.2,135.9 391.4,131.1 390.7,131.1 C390.5,131.1 385.7,136.6 380.1,143.4 C374.4,150.1 369.2,156.2 368.6,156.9 C367.6,158 366.9,157.8 364.6,155.7 C362.2,153.4 362,152.9 363.2,151.4 C364.9,149.2 390.5,118.7 394,114.6 C395.4,113 395.9,112.2 395.1,112.7 C394.3,113.3 385.8,119.5 376.3,126.5 C366.7,133.5 358.4,139.4 357.7,139.7 C356.3,140.2 354.7,137.5 355.6,136.1 C355.8,135.7 364.2,129.4 374.1,122 C384.1,114.7 392.4,108.4 392.7,108 C393.2,107.2 390,108.5 356.7,123.5 C347.4,127.7 339.7,131 339.6,130.8 C339.6,130.7 339,129.4 338.4,128 L337.3,125.5 L367.2,112.2 C383.7,104.8 397.3,98.6 397.5,98.2 C397.8,97.7 291.8,100.2 266.7,101.3 L259.7,101.6 L290,122.9 C309.7,136.8 320.7,143.9 321.3,143.3 C321.9,142.7 323.3,142.7 325.2,143.5 C327.6,144.3 328.1,145 327.7,146.7 C327.2,148.5 328.1,149.7 331.9,152.5 C335.7,155.3 336.8,155.7 337.6,154.7 C338.5,153.5 339.1,153.5 341.4,154.7 C343.7,155.9 344,156.5 343.1,158.1 C342.3,159.6 342.5,160.2 344.1,161.1 C345.2,161.7 346.1,163.1 346.1,164.2 C346.1,170.2 352,175.4 358.4,175 C364.7,174.7 364.9,174.8 367.1,179.1 C369.2,183.2 373.4,186.1 377.3,186.1 C378.6,186.1 383.8,189.1 388.9,192.7 L398.1,199.3 L395.6,202.3 C391.3,207.4 392.9,216.3 398.6,218.9 C405.1,221.9 412,219.1 414.7,212.4 C415.7,210.1 416.8,209.1 418.4,209 C419.6,209 422.9,208.6 425.8,208.2 L431,207.5 L430.9,212.2 C430.8,214.8 431.4,217.7 432.1,218.6 C433.6,220.4 433.6,220.5 429.2,221.7 L425.8,222.6 L443.7,237.6 C453.5,245.9 462.5,253.3 463.6,254.1 C465.9,255.9 466.8,257.4 453.3,236.8 C448.7,229.7 445.1,223.8 445.3,223.7 C445.9,223.1 450,221.1 450.4,221.1 C451,221.1 478.1,262.7 478.1,263.6 C478.1,263.9 476.6,265.7 474.7,267.6 L471.2,271.1 L448.2,251.7 C435.5,241 424.7,232 424,231.6 C423.4,231.2 428,238.4 434.1,247.6 L445.3,264.4 L442.5,266.7 C440.9,267.9 439.3,268.6 439,268.3 C438.6,267.9 431.9,257.9 424.1,246.1 C416.2,234.3 409.7,224.5 409.7,224.4 C409.5,224.1 312.2,236.9 310.8,237.4 C310.3,237.5 319.2,243.9 330.6,251.4 C349.1,263.7 351.1,265.4 350,266.9 C349.2,267.8 348.6,268.7 348.5,268.9 C348.4,269.1 339.5,263.4 328.7,256.2 C317.9,249 309.1,243.3 309.1,243.6 C309.1,243.9 316.8,253.6 326.2,265.1 C341.4,283.9 344.1,288.1 341.1,288.1 C340.6,288.1 332.7,278.9 323.5,267.6 C314.3,256.3 306.7,247.1 306.5,247.1 C306.1,247.1 306.1,247.1 318.6,275.5 C325.4,291 327,295.6 325.9,296.2 C325.2,296.7 324.2,296.9 323.6,296.8 C323.1,296.6 317.9,285.6 312.1,272.4 C306.3,259.1 301.5,248.4 301.3,248.5 C301.2,248.7 302.6,258.8 304.6,271 C308.6,296.6 308.7,297.1 306.7,295.1 C305.9,294.3 304.6,289.6 303.7,284.6 L302.2,275.6 L302.7,284.9 L303.3,294.1 L300.3,294.1 C297.5,294.1 297.3,293.8 296.7,288.9 C296.4,286 296.1,280 296,275.6 C296,271.2 295.6,265.1 295.3,262.1 C294.6,257 294.2,258.6 289.6,284.1 C285.5,306 284.2,311.7 282.9,311.9 C282,312.1 281.1,311.8 280.8,311.4 Z M355.6,212.5 C373.2,208.8 387.9,205.5 388.3,205.2 C389.2,204.4 366.5,188.6 364.7,188.7 C363.6,188.8 323.2,216.8 320.6,219.4 C319.9,220 320.3,220.1 321.6,219.8 C322.7,219.5 338,216.2 355.6,212.5 Z M341.9,196.2 L359.2,183.9 L355.4,181 C353.3,179.5 351.2,178.2 350.6,178.2 C350.1,178.2 344.7,183.9 338.6,190.8 C324.1,207.3 320.3,211.9 322.6,210 C323.7,209.1 332.4,202.9 341.9,196.2 Z M333.3,185.3 L344.1,173.3 L340.8,170.8 L337.5,168.3 L330.6,180.4 C318.8,200.8 317.6,203 320.3,200 C321.6,198.5 327.4,191.9 333.3,185.3 Z M330.2,167.5 L332.1,164.4 L328.1,161.7 C325.2,159.8 323.9,159.4 323.6,160.3 C322.6,163 311.1,199.5 311.1,200 C311.1,200.3 315,193.9 319.7,185.6 C324.4,177.4 329.1,169.2 330.2,167.5 Z M423.5,154.7 C421.1,142.6 419,132.6 418.8,132.5 C418.6,132.3 417,145.1 415.2,160.9 C413.4,176.7 411.7,190.5 411.4,191.6 C411.1,192.7 414.6,189.9 419.4,185.1 L428,176.6 L423.5,154.7 Z" id="Shape" fill="#888888"></path>
                <path d="M344.4,303.2 C335.7,297.9 342.5,284.9 352.2,288.3 C358.7,290.6 359.3,300.4 353,303.6 C349.3,305.5 348.2,305.5 344.4,303.2 Z" id="Shape" fill="#E13C74"></path>
                <path d="M242,291.8 C235.4,286.7 239,276.1 247.3,276.1 C250.8,276.1 256.1,280.9 256.1,284.1 C256.1,287 253.5,291.7 251.6,292.5 C248.9,293.5 243.7,293.1 242,291.8 Z" id="Shape" fill="#5B2CC1"></path>
                <path d="M221,284.6 C215.2,281.5 215.4,272.5 221.3,269.5 C230.2,264.9 238.3,276 231.2,283.2 C228,286.4 225,286.8 221,284.6 Z" id="Shape" fill="#E13C74"></path>
                <path d="M446.1,284.4 C439.5,282 438,274.1 443.2,269.7 C446.5,266.9 449.1,266.5 452.4,268.3 C455.8,270 457,272.2 457.1,276.3 C457.1,279.1 456.4,280.5 454,282.5 C451,285 449.1,285.5 446.1,284.4 Z" id="Shape" fill="#2A92E5"></path>
                <path d="M477.8,283 C476.9,282.5 475.4,280.6 474.5,279 C469.9,269.9 482.8,261.8 489.1,269.8 C492,273.5 491.7,277.7 488.2,281.2 C485.1,284.2 481.1,284.9 477.8,283 Z" id="Shape" fill="#E13C74"></path>
                <path d="M35.1,281.4 C29.9,279.5 27.5,274.4 29.5,269.6 C32.1,263.4 38.4,262.2 43.2,267 C48,271.8 46.8,278.1 40.6,280.7 C38.7,281.5 37,282.1 36.9,282 C36.7,282 35.9,281.7 35.1,281.4 Z" id="Shape" fill="#5B2CC1"></path>
                <path d="M353,279.2 C348.4,274.5 349.3,268.6 355.2,265.6 C364.3,260.9 372.4,273.8 364.4,280.1 C360.7,283 356.5,282.7 353,279.2 Z" id="Shape" fill="#E13C74"></path>
                <path d="M44.3,263.8 C43.5,262.9 47,258.2 58.6,244.8 C67.1,235 75.6,225.2 77.4,223 C79.8,220.3 81.3,219.3 82.5,219.7 C83.4,220 84.1,220.7 84.1,221.3 C84.1,222.5 47.3,265.1 46.2,265.1 C45.7,265.1 44.9,264.5 44.3,263.8 Z" id="Shape" fill="#737373"></path>
                <path d="M512,261.2 C505.2,254.4 511.7,244.1 520.8,247.2 C530.3,250.3 527.2,264.1 517,264.1 C515.9,264.1 513.6,262.8 512,261.2 Z" id="Shape" fill="#2A92E5"></path>
                <path d="M14.4,260.1 C5.8,256.6 8.9,243.6 18.3,243.9 C26.5,244.1 29.3,255.9 22,259.6 C18.8,261.3 17.6,261.4 14.4,260.1 Z" id="Shape" fill="#E13C74"></path>
                <path d="M217.6,257.6 C212.2,252.3 216,243.1 223.6,243.1 C228.5,243.1 232.1,246.7 232.1,251.6 C232.1,259.2 222.9,263 217.6,257.6 Z" id="Shape" fill="#E13C74"></path>
                <path d="M28.1,246.3 C28.1,245.7 39.1,239.1 52.6,231.5 C66.1,224 77,217.6 76.7,217.4 C76.5,217.2 64.1,219.6 49.2,222.7 C34.2,225.8 21.8,228.2 21.6,228 C21.4,227.8 21.1,226.7 20.9,225.6 C20.6,223.8 22.4,223.2 42.6,219 C54.7,216.4 67.3,213.8 70.6,213.1 L76.6,211.8 L48.6,208.7 C23.3,205.9 20.6,205.4 20.3,203.7 C20,202.1 20.3,201.9 22.7,202.4 C24.3,202.7 37.6,204.2 52.3,205.7 L78.9,208.5 L79.3,212 C79.6,214 80,216.2 80.2,216.9 C80.4,217.7 71.4,223.4 55.6,232.3 C28.1,247.8 28.1,247.8 28.1,246.3 Z" id="Shape" fill="#737373"></path>
                <path d="M165.6,244.6 C160.3,239.4 164.2,230.2 171.8,230.1 C179.4,230.1 183.3,239 178.1,244.6 C174.9,248 169,248.1 165.6,244.6 Z" id="Shape" fill="#5B2CC1"></path>
                <path d="M293.5,240.1 C287.7,237.8 286.5,230.6 291,226 C295.6,221.4 301.9,222.6 304.8,228.5 C306.2,231.4 306.2,232.4 305.1,235.1 C303.9,238.1 299.6,241.2 296.9,241 C296.2,241 294.6,240.6 293.5,240.1 Z" id="Shape" fill="#5B2CC1"></path>
                <path d="M129.9,227.9 L100.2,218 L100.8,214.3 C101.1,212.3 101.6,210.3 102,210 C102.3,209.7 126.2,211.8 155.1,214.7 C184,217.6 208.6,220 209.9,220.1 C211.7,220.1 212.1,220.6 212.1,223.6 C212.1,227.1 212.1,227.1 208.4,226.6 C199.4,225.3 123.4,218.1 121.7,218.3 C120.7,218.5 129.3,221.7 141,225.6 C160.3,232 162,232.7 161.5,234.6 C161.1,235.7 160.6,236.9 160.2,237.2 C159.9,237.6 146.2,233.4 129.9,227.9 Z" id="Shape" fill="#828282"></path>
                <path d="M4,234.2 C-0.8,229.4 0.4,223.1 6.6,220.5 C10.4,218.9 13.6,219.7 16.2,222.7 C18.8,225.8 19.2,228 17.7,231.6 C15.1,237.8 8.8,239 4,234.2 Z" id="Shape" fill="#2A92E5"></path>
                <path d="M520.6,230.6 C515.3,225.4 519.2,216.2 526.8,216.1 C534.4,216.1 538.3,225 533.1,230.6 C529.9,234 524,234.1 520.6,230.6 Z" id="Shape" fill="#E13C74"></path>
                <path d="M217.1,229.1 C212.8,224.8 213.9,217.9 219.4,215.3 C227.8,211.3 235.5,221.8 229.1,228.6 C226.1,231.8 220,232 217.1,229.1 Z" id="Shape" fill="#E13C74"></path>
                <path d="M280.6,223 C277.9,220.8 269.9,214.9 262.9,209.9 L250.2,200.8 L251.8,197.7 C252.6,196 253.5,194.4 253.7,194.2 C253.8,194.1 258.4,197.4 263.8,201.8 C277.9,213.1 282.8,216.8 281.5,215.1 C273.5,204.5 248,168.9 248.3,168.7 C248.5,168.6 249.3,168 250.2,167.3 C251.7,166.2 254.3,169.3 272.1,193.7 L292.3,221.3 L289.5,224.2 C288,225.8 286.5,227.1 286.2,227 C285.9,227 283.4,225.2 280.6,223 Z" id="Shape" fill="#828282"></path>
                <path d="M482.9,220.7 C466.5,218.4 452.9,216.3 452.7,216 C452.4,215.8 452.6,214.9 453.1,214.2 C453.8,213 459,213.5 484.8,217 C501.7,219.4 515.8,221.4 516,221.6 C516.8,222.4 515.1,225.1 513.9,225 C513.2,224.9 499.2,223 482.9,220.7 Z" id="Shape" fill="#808080"></path>
                <path d="M438.5,221.1 C435.4,219.9 433.1,216.2 433.1,212.5 C433.1,208.9 437.8,204.1 441.2,204.1 C444,204.1 448.7,206.7 449.5,208.6 C451.1,212.7 450.1,216.9 447,219.5 C443.8,222.2 442,222.5 438.5,221.1 Z" id="Shape" fill="#5B2CC1"></path>
                <path d="M84.6,217.8 C81.1,214.8 80.9,209 84.2,205.5 C89.3,200.1 99.1,203.9 99.1,211.4 C99.1,219 90.4,222.8 84.6,217.8 Z" id="Shape" fill="#5B2CC1"></path>
                <path d="M398,215.2 C393.4,210.5 394.3,204.6 400.2,201.6 C409.3,196.8 417.5,209.7 409.4,216.1 C405.7,219 401.5,218.7 398,215.2 Z" id="Shape" fill="#E13C74"></path>
                <path d="M2.6,208.6 C-2.8,203.3 1,194.1 8.6,194.1 C13.5,194.1 17.1,197.7 17.1,202.6 C17.1,207.5 13.5,211.1 8.6,211.1 C6.1,211.1 4.2,210.3 2.6,208.6 Z" id="Shape" fill="#2A92E5"></path>
                <path d="M99.2,205 C97.9,203.3 97.3,201.6 97.7,201.1 C98.2,200.7 129.2,178 166.5,150.7 L234.4,101 L237.3,104.6 C239.4,107.1 241.3,108.3 244,108.7 L247.8,109.3 L247.4,119 C247.2,124.3 246.8,132.8 246.5,137.9 C245.9,146.7 245.8,147.1 243.6,147.1 C241.4,147.1 241.3,146.8 241.7,141.4 C241.9,138.2 242.3,130.2 242.5,123.6 L242.9,111.6 L239.7,118.1 C237.9,121.7 233.1,131.9 229,140.8 C222.5,155 221.4,156.9 219.6,156.4 C218.5,156.1 217.2,155.5 216.8,155.1 C216.4,154.7 219.5,147 223.7,138 C227.9,129 232.6,118.8 234.2,115.4 L237,109.1 L226.3,117 C220.4,121.3 190.9,142.9 160.6,165.1 C130.4,187.2 104.7,206 103.6,206.7 C101.7,208 101.3,207.8 99.2,205 Z" id="Shape" fill="#828282"></path>
                <path d="M237,199.8 C232.4,196.3 232.3,189.7 236.8,186.1 C241.5,182.4 247.3,184 249.7,189.6 C251.2,193.4 250.8,195.5 247.8,198.9 C245.5,201.4 239.7,201.9 237,199.8 Z" id="Shape" fill="#E13C74"></path>
                <path d="M15,182.6 C9.6,179.7 9,171.9 13.8,168.1 C17.5,165.2 21.7,165.5 25.2,169 C29.8,173.6 28.9,179.6 23.1,182.6 C19.6,184.4 18.4,184.4 15,182.6 Z" id="Shape" fill="#2A92E5"></path>
                <path d="M375.1,183.4 C371.5,182.1 369.1,178.7 369.1,175.2 C369.2,171.2 370.5,169 373.8,167.3 C377.1,165.5 379.7,165.9 383,168.7 C385.3,170.6 386.1,172.1 386.1,174.6 C386.1,180.3 379.9,185.2 375.1,183.4 Z" id="Shape" fill="#5B2CC1"></path>
                <path d="M208,172.2 C204.5,168.7 204.2,164.5 207.1,160.8 C213.4,152.8 225.6,160.2 221.6,169.7 C219.2,175.6 212.6,176.8 208,172.2 Z" id="Shape" fill="#2A92E5"></path>
                <path d="M353,171.6 C345.2,167.3 349,155.1 358.1,155.1 C361.4,155.1 366.1,160.4 366.1,164 C366.1,170.3 358.5,174.7 353,171.6 Z" id="Shape" fill="#2A92E5"></path>
                <path d="M237.6,164.6 C234,161.1 234.1,155 237.7,152.2 C243.7,147.5 252.1,151.2 252.1,158.6 C252.1,163.5 248.5,167.1 243.6,167.1 C241.1,167.1 239.2,166.3 237.6,164.6 Z" id="Shape" fill="#2A92E5"></path>
                <path d="M478.5,163.1 C472.7,160.7 471.5,153.6 476,149 C480.8,144.2 487.1,145.4 489.7,151.6 C492.6,158.6 485.4,166 478.5,163.1 Z" id="Shape" fill="#5B2CC1"></path>
                <path d="M455.6,161.9 C454.5,161.3 453,160.1 452.4,159.3 C451,157.6 450.7,152.4 451.7,149.6 C452.5,147.7 457.2,145.1 460.1,145.1 C463.4,145.1 468.1,150.4 468.1,154.1 C468.1,156.3 467.2,158.2 465.2,160.2 C462.1,163.2 459,163.8 455.6,161.9 Z" id="Shape" fill="#5B2CC1"></path>
                <path d="M341,151.2 C333.9,144 342,132.9 350.9,137.5 C356.9,140.6 356.9,149.6 351,152.6 C346.8,154.8 344.3,154.4 341,151.2 Z" id="Shape" fill="#2A92E5"></path>
                <path d="M322.3,138.8 C317.2,133.4 321.1,124.1 328.4,124.1 C336.1,124.1 340,133.3 334.6,138.6 C331.3,142 325.3,142 322.3,138.8 Z" id="Shape" fill="#2A92E5"></path>
                <path d="M239.6,103.6 C234.2,98.3 238,89.1 245.6,89.1 C253.2,89.1 257.2,98.8 251.8,103.9 C248.5,107 242.8,106.9 239.6,103.6 Z" id="Shape" fill="#2A92E5"></path>
                <path d="M493.5,103.7 C487.6,101.1 486.7,93.1 491.8,89.1 C495.5,86.2 499.7,86.5 503.2,90 C507.6,94.4 506.7,100.7 501.2,103.6 C497.6,105.4 497.5,105.4 493.5,103.7 Z" id="Shape" fill="#2A92E5"></path>
                <path d="M415.1,101.4 C406.9,98.3 407.3,86.6 415.6,84.5 C423.6,82.5 429.9,93.2 423.9,98.9 C421.4,101.2 417.4,102.3 415.1,101.4 Z" id="Shape" fill="#5B2CC1"></path>
                <path d="M460.1,98.1 C451.6,97.7 440.9,97.3 436.3,97.2 C428.4,97.1 428,97 428.6,95.1 C429.5,92.1 427.3,86.4 424.4,84.1 C421.2,81.6 415,81.5 411.1,83.7 L408.4,85.4 L389.3,66 C376.4,52.9 370.6,46.3 371.3,45.6 C372,44.9 378.4,50.9 391.2,64.1 L410.1,83.6 L398.1,58.7 C386.1,33.9 385.3,31.5 389.9,32.4 C390.6,32.5 396,42.6 401.9,54.7 C407.8,66.9 412.7,76.8 412.9,76.6 C413.1,76.4 411.1,63.9 408.5,48.7 C404.2,24.1 403.6,17 405.9,20.8 C406.3,21.5 408.7,33.5 411.1,47.6 C413.5,61.6 415.8,72.8 416.1,72.4 C416.5,71.9 417.3,64.6 418,56.1 C420.1,27.6 420.1,28.1 422.7,28.1 C425.7,28.1 425.7,28.5 423.6,52.7 C422.7,62.4 422.2,70.8 422.3,71.3 C422.5,71.8 426.4,60.6 431,46.4 C435.5,32.2 439.7,20.2 440.2,19.7 C440.8,19.1 441.4,19.1 442,19.7 C442.5,20.2 439.2,31.7 434,47.6 C429.2,62.4 425.4,74.7 425.5,74.9 C425.7,75 430.9,66.6 437.2,56.2 C443.5,45.7 449.2,37.2 449.9,37.1 C453.2,37 451.4,41.3 440.6,59.3 C434.1,69.9 428.7,79.1 428.4,79.6 C428.2,80.2 437.3,71 448.8,59.3 C467.3,40.5 472.1,36.2 472.1,38.8 C472.1,39.2 462.8,49 451.4,60.5 C439.9,72 432.2,80.5 434.1,79.3 C436,78.2 445.9,72.3 456.1,66.2 C474.3,55.3 474.6,55.2 475.8,57.4 C476.5,58.6 477,59.9 477.1,60.2 C477.1,60.5 468.6,65.9 458.2,72.1 C447.7,78.4 439.3,83.7 439.5,83.8 C439.6,83.9 450.2,81.1 463,77.6 C475.9,74 486.5,71.2 486.7,71.4 C486.9,71.6 487.2,72.8 487.3,74 C487.6,76.2 486.5,76.7 463.6,83 C441,89.2 439.9,89.6 444.1,90.3 C446.6,90.6 452.9,91 458.2,91 C463.5,91.1 471.9,91.4 476.9,91.7 L486.1,92.4 L486.1,95.7 L486.1,99.1 L480.9,98.9 C478,98.8 468.6,98.4 460.1,98.1 Z" id="Shape" fill="#717171"></path>
                <path d="M214.4,70.8 C195.8,53.2 193.3,50.5 194.6,49.2 C196.2,47.6 195.2,46.7 222.8,73 C235.7,85.1 238.9,88.7 238,89.8 C237.4,90.5 236.6,91.1 236.2,91.1 C235.9,91 226,81.9 214.4,70.8 Z" id="Shape" fill="#7F7F7F"></path>
                <path d="M492.5,76.7 C486.7,71.7 490.4,62.1 498,62.1 C502,62.2 504.2,63.5 505.9,66.8 C507.7,70.1 507.3,72.7 504.5,76 C501.2,79.9 496.5,80.2 492.5,76.7 Z" id="Shape" fill="#2A92E5"></path>
                <path d="M483.1,60.4 C474.9,57.3 475.3,45.6 483.6,43.5 C491.6,41.5 497.9,52.2 491.9,57.9 C489.4,60.2 485.4,61.3 483.1,60.4 Z" id="Shape" fill="#E13C74"></path>
                <path d="M181.8,49 C179.1,47.4 176.9,41.7 178,38.9 C180.5,32.4 188.5,30.5 192.7,35.5 C196,39.3 195.8,43.5 192.2,47.2 C189.1,50.3 185.1,50.9 181.8,49 Z" id="Shape" fill="#2A92E5"></path>
                <path d="M357.5,43.7 C351.8,38.8 355.3,29.1 362.8,29.1 C367.4,29.1 369.6,30.4 371.1,34 C374.7,42.8 364.7,49.9 357.5,43.7 Z" id="Shape" fill="#E13C74"></path>
                <path d="M474.3,37.5 C468.7,33.6 469.6,25.1 475.7,22.5 C478.6,21.3 479.6,21.3 482.6,22.5 C488.6,25 489.8,31.5 485.2,36.2 C481.9,39.5 477.8,40 474.3,37.5 Z" id="Shape" fill="#E13C74"></path>
                <path d="M451,34.2 C447.5,30.7 447.2,26.5 450.1,22.8 C455.1,16.4 465,19.7 465.1,27.8 C465.1,32.3 464.2,34 461,35.6 C456.8,37.8 454.3,37.4 451,34.2 Z" id="Shape" fill="#E13C74"></path>
                <path d="M377.6,28.6 C372.2,23.3 376,14.1 383.6,14.1 C388.5,14.1 392.1,17.7 392.1,22.6 C392.1,27.5 388.5,31.1 383.6,31.1 C381.1,31.1 379.2,30.3 377.6,28.6 Z" id="Shape" fill="#E13C74"></path>
                <path d="M420.5,25.1 C414.6,22.7 413.5,15.6 418.1,10.9 C420.8,8.3 421.7,7.9 424.9,8.4 C429.5,9.2 432.1,12.2 432.1,17 C432.1,23 425.8,27.3 420.5,25.1 Z" id="Shape" fill="#E13C74"></path>
                <path d="M398.9,16.5 C393.3,13.5 392.5,7.5 397,3 C401.7,-1.6 407.6,-0.7 410.6,5.2 C412.9,9.6 411.1,14.8 406.5,16.7 C402.5,18.4 402.3,18.4 398.9,16.5 Z" id="Shape" fill="#E13C74"></path>
                <path d="M439.2,15.4 C438,14.4 436.8,11.9 436.4,9.9 C435.9,6.7 436.3,5.8 438.9,3.1 C442.7,-0.6 446.9,-0.9 450.7,2.5 C456.6,7.5 452.8,17.1 445,17.1 C443,17.1 440.4,16.3 439.2,15.4 Z" id="Shape" fill="#E13C74"></path>
            </g>
        </g>
    </g>
</svg>